<svg width="528" height="528" viewBox="0 0 528 528" fill="none" xmlns="http://www.w3.org/2000/svg">
<circle cx="264" cy="264" r="250" fill="black"/>
<path d="M264.553 0.00366783C410.693 0.776493 528.373 119.681 527.593 265.765C526.813 412.04 408.083 528.706 261.123 527.592C115.783 526.488 -0.726588 408.156 0.00341171 262.363C0.723412 117.553 120.023 -0.75912 264.553 0.00366783ZM264.143 27.0024C134.223 26.6009 26.9334 133.532 26.6434 263.687C26.3534 393.944 132.883 500.644 263.453 500.864C393.943 501.085 500.613 394.877 500.953 264.38C501.293 134.405 394.553 27.4038 264.143 27.0024Z" fill="#EAFF39"/>
<path d="M144.751 438.26C206.521 341.36 265.051 249.52 324.351 156.5C313.351 149.05 303.221 142.2 290.731 133.75C322.801 118.44 352.721 104.14 384.431 89V193.4C372.201 185.94 361.751 179.58 349.791 172.28C323.311 213.54 297.041 254.28 270.981 295.15C243.501 338.25 215.511 381.06 189.191 424.87C178.701 442.33 163.811 433.84 144.761 438.26H144.751Z" fill="#E3F35B"/>
<path d="M345.48 285.828C380.32 285.918 409.9 316.678 409.35 352.228C408.78 388.298 379.45 417.938 344.47 417.788C309.42 417.648 280.64 387.448 281.09 351.298C281.55 314.618 309.96 285.728 345.48 285.828ZM384.42 351.328C384.23 328.348 366.06 309.048 344.79 309.248C323.53 309.448 305.31 329.268 305.46 352.028C305.61 375.138 324.02 394.378 345.43 393.788C367.89 393.168 384.62 374.948 384.43 351.328H384.42Z" fill="#E3F35B"/>
<path d="M183.731 141.639C219.431 141.799 247.591 170.699 247.601 207.199C247.611 243.229 218.471 272.849 183.261 272.579C147.931 272.309 118.811 242.499 119.001 206.789C119.191 170.759 148.281 141.479 183.731 141.639ZM144.131 206.569C143.961 230.279 161.031 248.679 183.241 248.729C204.861 248.779 223.511 229.519 223.681 206.979C223.841 184.579 205.261 164.819 183.811 164.569C162.171 164.319 144.291 183.249 144.131 206.579V206.569Z" fill="#E4F45B"/>
</svg>
